<svg width="55" height="55" viewBox="0 0 55 55" fill="none" xmlns="http://www.w3.org/2000/svg">
<path d="M28 27.5C33.9969 27.5 38.8571 22.9115 38.8571 17.25C38.8571 11.5885 33.9969 7 28 7C22.0031 7 17.1429 11.5885 17.1429 17.25C17.1429 22.9115 22.0031 27.5 28 27.5ZM36.1259 30.1105L32.0714 45.4375L29.3571 34.5469L32.0714 30.0625H23.9286L26.6429 34.5469L23.9286 45.4375L19.8741 30.1105C13.8263 30.3828 9 35.0514 9 40.825V44.1562C9 46.2783 10.8237 48 13.0714 48H42.9286C45.1763 48 47 46.2783 47 44.1562V40.825C47 35.0514 42.1737 30.3828 36.1259 30.1105Z" fill="white"/>
</svg>
