<svg width="55" height="55" viewBox="0 0 55 55" fill="none" xmlns="http://www.w3.org/2000/svg">
<path d="M39.7727 40.659C41.4705 40.659 42.8409 39.2885 42.8409 37.5908C42.8409 35.8931 41.4705 34.5226 39.7727 34.5226C38.075 34.5226 36.7045 35.8931 36.7045 37.5908C36.7045 39.2885 38.075 40.659 39.7727 40.659ZM42.8409 22.2499H37.7273V27.3635H46.85L42.8409 22.2499ZM15.2273 40.659C16.925 40.659 18.2955 39.2885 18.2955 37.5908C18.2955 35.8931 16.925 34.5226 15.2273 34.5226C13.5295 34.5226 12.1591 35.8931 12.1591 37.5908C12.1591 39.2885 13.5295 40.659 15.2273 40.659ZM43.8636 19.1817L50 27.3635V37.5908H45.9091C45.9091 40.9862 43.1682 43.7271 39.7727 43.7271C36.3773 43.7271 33.6364 40.9862 33.6364 37.5908H21.3636C21.3636 40.9862 18.6227 43.7271 15.2273 43.7271C11.8318 43.7271 9.09091 40.9862 9.09091 37.5908H5V15.0908C5 12.8203 6.82045 10.9999 9.09091 10.9999H37.7273V19.1817H43.8636ZM9.09091 15.0908V33.4999H10.6455C11.7705 32.2521 13.4068 31.4544 15.2273 31.4544C17.0477 31.4544 18.6841 32.2521 19.8091 33.4999H33.6364V15.0908H9.09091ZM23.4091 17.1362L30.5682 24.2953L23.4091 31.4544V26.3408H13.1818V22.2499H23.4091V17.1362Z" fill="white"/>
</svg>
