<svg width="31" height="31" viewBox="0 0 31 31" fill="none" xmlns="http://www.w3.org/2000/svg">
<path d="M8.79819 4.84375C7.75066 4.84783 6.74721 5.26577 6.00649 6.00649C5.26577 6.74721 4.84783 7.75066 4.84375 8.79819V22.2018C4.84783 23.2493 5.26577 24.2528 6.00649 24.9935C6.74721 25.7342 7.75066 26.1522 8.79819 26.1562H22.2018C23.2493 26.1522 24.2528 25.7342 24.9935 24.9935C25.7342 24.2528 26.1522 23.2493 26.1562 22.2018V8.79819C26.1522 7.75066 25.7342 6.74721 24.9935 6.00649C24.2528 5.26577 23.2493 4.84783 22.2018 4.84375H8.79819ZM8.79819 6.78125H22.2018C23.3256 6.78125 24.2188 7.67444 24.2188 8.79819V22.2018C24.2188 23.3256 23.3256 24.2188 22.2018 24.2188H8.79819C8.53285 24.2204 8.26983 24.1694 8.02436 24.0686C7.7789 23.9679 7.55589 23.8194 7.36827 23.6317C7.18064 23.4441 7.03214 23.2211 6.93137 22.9756C6.83061 22.7302 6.77958 22.4671 6.78125 22.2018V8.79819C6.78125 7.67444 7.67444 6.78125 8.79819 6.78125ZM15.2278 11.8478C14.5157 11.841 13.9103 11.8478 13.5703 12.0144C13.3426 12.1249 13.1692 12.3738 13.2748 12.3855C13.4075 12.4048 13.7059 12.4688 13.8657 12.6848C14.0692 12.9609 14.0624 13.5858 14.0624 13.5858C14.0624 13.5858 14.1757 15.3033 13.7853 15.5194C13.517 15.6666 13.1498 15.3673 12.3554 14.0013C11.9505 13.298 11.6444 12.5221 11.6444 12.5221C11.6444 12.5221 11.5863 12.3777 11.4816 12.3022C11.3528 12.2082 11.1745 12.1772 11.1745 12.1772L9.27869 12.1888C9.27869 12.1888 8.99484 12.2004 8.89313 12.3215C8.79819 12.4349 8.88538 12.6577 8.88538 12.6577C8.88538 12.6577 10.3685 16.1277 12.0483 17.8763C13.5887 19.4816 15.3372 19.375 15.3372 19.375H16.1316C16.1316 19.375 16.3699 19.3488 16.491 19.22C16.6053 19.0989 16.6015 18.8712 16.6015 18.8712C16.6015 18.8712 16.586 17.8085 17.0781 17.6497C17.5663 17.4976 18.1863 18.6785 18.849 19.1328C19.3527 19.4767 19.7344 19.4012 19.7344 19.4012L21.5063 19.375C21.5063 19.375 22.4295 19.3178 21.9906 18.5874C21.9567 18.5312 21.7368 18.0507 20.678 17.0665C19.5649 16.0377 19.7131 16.2043 21.0519 14.4218C21.8657 13.3358 22.1912 12.6732 22.0885 12.3855C21.9916 12.1171 21.3929 12.1888 21.3929 12.1888L19.3983 12.2004C19.3983 12.2004 19.251 12.1811 19.1415 12.246C19.0663 12.3019 19.0063 12.3758 18.9672 12.461C18.9672 12.461 18.6494 13.3009 18.229 14.0168C17.3435 15.5223 16.9841 15.6056 16.8408 15.5116C16.5036 15.2917 16.5869 14.633 16.5869 14.168C16.5869 12.7032 16.8097 12.0977 16.1558 11.9398C15.9398 11.8866 15.7809 11.8527 15.2288 11.8478H15.2278Z" fill="#ADFF00"/>
</svg>
