<svg width="247" height="48" viewBox="0 0 247 48" fill="none" xmlns="http://www.w3.org/2000/svg">
<g clip-path="url(#clip0)">
<path d="M37.373 31.9947H26.8498L24.4979 38.5181H21.0884L30.6487 13.5798H33.5426L43.145 38.5129H39.7512L37.373 31.9947ZM27.86 29.308H36.3943L32.1219 17.6465L27.86 29.308Z" fill="white"/>
<path d="M87.253 35.5806H79.8867L78.2346 40.149H75.8458L82.5544 22.6907H84.5801L91.3044 40.149H88.9261L87.253 35.5806ZM80.5918 33.6988H86.569L83.5751 25.5342L80.5918 33.6988Z" fill="white"/>
<path d="M96.1661 33.3173V40.1543H93.851V22.6907H100.333C102.255 22.6907 103.762 23.1785 104.853 24.1542C105.394 24.6416 105.821 25.2411 106.104 25.9103C106.387 26.5795 106.518 27.3023 106.489 28.0275C106.537 28.7557 106.42 29.4852 106.146 30.1627C105.873 30.8401 105.451 31.4482 104.911 31.9426C103.858 32.859 102.331 33.3173 100.328 33.3173H96.1661ZM96.1661 31.4355H100.328C101.353 31.5034 102.367 31.1925 103.174 30.5626C103.515 30.2411 103.78 29.8493 103.951 29.4148C104.122 28.9804 104.194 28.5139 104.164 28.0484C104.185 27.5862 104.108 27.1248 103.937 26.6943C103.767 26.2637 103.507 25.8738 103.174 25.5499C102.431 24.8852 101.459 24.5296 100.46 24.5567H96.1608L96.1661 31.4355Z" fill="white"/>
<path d="M112.609 22.6907L118.354 36.9344L124.1 22.6907H127.104V40.149H124.789V33.3539L125.005 26.036L119.217 40.149H117.465L111.677 26.0464L111.909 33.3643V40.1595H109.594V22.6907H112.609Z" fill="white"/>
<path d="M141.289 35.5806H133.923L132.271 40.149H129.882L136.591 22.6907H138.617L145.351 40.149H142.973L141.289 35.5806ZM134.628 33.6988H140.616L137.622 25.5342L134.628 33.6988Z" fill="white"/>
<path d="M167.597 40.149H165.267V24.5567H156.606V40.1333H154.296V22.6907H167.608L167.597 40.149Z" fill="white"/>
<path d="M174.127 33.3173V40.1543H171.812V22.6907H178.294C180.216 22.6907 181.723 23.1785 182.814 24.1542C183.355 24.6416 183.782 25.2411 184.065 25.9103C184.348 26.5795 184.479 27.3023 184.45 28.0275C184.498 28.7557 184.381 29.4852 184.107 30.1627C183.834 30.8401 183.412 31.4482 182.872 31.9426C181.819 32.859 180.292 33.3173 178.289 33.3173H174.127ZM174.127 31.4355H178.289C179.312 31.5021 180.324 31.1913 181.13 30.5626C181.47 30.2411 181.735 29.8493 181.906 29.4148C182.077 28.9804 182.15 28.5139 182.119 28.0484C182.141 27.5862 182.064 27.1248 181.893 26.6943C181.723 26.2637 181.463 25.8738 181.13 25.5499C180.39 24.8877 179.422 24.5323 178.426 24.5567H174.127V31.4355Z" fill="white"/>
<path d="M200.924 31.9844C200.964 33.5209 200.674 35.0481 200.072 36.464C199.561 37.6592 198.704 38.6764 197.609 39.3859C196.788 39.9154 195.86 40.262 194.891 40.402C193.921 40.542 192.933 40.4721 191.993 40.197C191.054 39.922 190.185 39.4483 189.447 38.8084C188.709 38.1686 188.119 37.3777 187.718 36.4901C187.101 35.1229 186.791 33.6392 186.807 32.1412V30.8815C186.776 29.3533 187.076 27.8363 187.686 26.4333C188.193 25.2328 189.053 24.2122 190.153 23.5045C191.253 22.7968 192.543 22.4348 193.853 22.466C195.167 22.4414 196.46 22.7935 197.578 23.48C198.685 24.1843 199.553 25.2021 200.072 26.4019C200.678 27.8171 200.973 29.3441 200.94 30.8815L200.924 31.9844ZM198.62 30.8554C198.62 28.7855 198.201 27.1964 197.362 26.0883C196.958 25.5463 196.427 25.1112 195.814 24.8213C195.201 24.5315 194.526 24.3958 193.847 24.4261C193.178 24.4012 192.513 24.5397 191.911 24.8295C191.308 25.1193 190.786 25.5515 190.391 26.0883C189.549 27.1964 189.116 28.7332 189.091 30.6986V31.9844C189.091 33.9916 189.515 35.5597 190.364 36.6888C190.775 37.216 191.3 37.6445 191.901 37.9422C192.501 38.2399 193.161 38.3992 193.832 38.4083C194.504 38.4173 195.168 38.2759 195.776 37.9944C196.385 37.713 196.921 37.2989 197.346 36.7828C198.167 35.6991 198.59 34.1467 198.614 32.1255L198.62 30.8554Z" fill="white"/>
<path d="M208.964 32.3084H206.828V40.149H204.507V22.6907H206.828V30.3901H208.638L214.804 22.6907H217.688L210.979 31.1585L218.188 40.1543H215.33L208.964 32.3084Z" fill="white"/>
<path d="M229.989 35.5806H222.623L220.971 40.149H218.582L225.291 22.6907H227.316L234.041 40.149H231.663L229.989 35.5806ZM223.328 33.6988H229.3L226.306 25.5342L223.328 33.6988Z" fill="white"/>
<path d="M246.995 24.5568H241.349V40.1334H239.044V24.5568H233.404V22.675H246.995V24.5568Z" fill="white"/>
<path d="M85.2851 15.148H83.9907V11.8393H80.6338V15.148H79.3342V7.69946H80.6338V10.7939H83.9802V7.69946H85.2746L85.2851 15.148Z" fill="white"/>
<path d="M101.633 13.4073H98.7337L98.1286 15.148H96.7764L99.6018 7.71509H100.77L103.601 15.148H102.243L101.633 13.4073ZM99.0967 12.3619H101.265L100.181 9.27798L99.0967 12.3619Z" fill="white"/>
<path d="M116.302 7.69946V14.1026H118.586V7.69946H119.88V14.1026H122.148V7.69946H123.442V15.148H114.997V7.69946H116.302Z" fill="white"/>
<path d="M150.35 7.69946L152.507 13.3969L154.659 7.69946H156.343V15.148H155.048V12.6861L155.175 9.40871L152.965 15.1585H152.034L149.829 9.40871L149.955 12.6808V15.148H148.661V7.69946H150.35Z" fill="white"/>
<path d="M172.78 11.8184H169.707V14.1026H173.301V15.148H168.408V7.69946H173.238V8.74487H169.681V10.7991H172.754L172.78 11.8184Z" fill="white"/>
<path d="M190.396 8.74487H188.06V15.148H186.771V8.74487H184.456V7.69946H190.391L190.396 8.74487Z" fill="white"/>
<path d="M205.476 13.4073H202.576L201.971 15.148H200.598L203.424 7.71509H204.592L207.438 15.148H206.081L205.476 13.4073ZM202.939 12.3619H205.107L204.023 9.27798L202.939 12.3619Z" fill="white"/>
<path d="M224.801 7.69956V15.1481H223.507V8.74497H221.213L221.081 11.6198C221.062 12.328 220.95 13.0308 220.75 13.7107C220.628 14.1421 220.37 14.5233 220.013 14.7979C219.628 15.0427 219.176 15.1615 218.719 15.1377H218.393V14.1027H218.598C218.86 14.091 219.107 13.9785 219.287 13.7891C219.477 13.5503 219.604 13.2682 219.655 12.9684C219.76 12.4358 219.82 11.8956 219.834 11.3533L219.976 7.69434L224.801 7.69956Z" fill="white"/>
<path d="M242.859 7.69956V15.1481H241.565V8.74497H239.271L239.139 11.6198C239.12 12.328 239.008 13.0308 238.808 13.7107C238.686 14.1421 238.428 14.5233 238.071 14.7979C237.686 15.0427 237.233 15.1615 236.777 15.1377H236.451V14.1027H236.656C236.918 14.091 237.165 13.9785 237.345 13.7891C237.535 13.5503 237.661 13.2682 237.713 12.9684C237.818 12.4358 237.877 11.8956 237.892 11.3533L238.034 7.69434L242.859 7.69956Z" fill="white"/>
<path d="M64.123 48H52.9V5.17473H11.1809V48H0V-0.010498H64.123V48Z" fill="#8F8F8F"/>
</g>
<defs>
<clipPath id="clip0">
<rect width="247" height="48" fill="white"/>
</clipPath>
</defs>
</svg>
