<svg width="247" height="48" viewBox="0 0 247 48" fill="none" xmlns="http://www.w3.org/2000/svg">
<g clip-path="url(#clip0)">
<path d="M37.373 31.9948H26.8498L24.4979 38.5182H21.0884L30.6487 13.5799H33.5426L43.145 38.5129H39.7512L37.373 31.9948ZM27.86 29.3081H36.3943L32.1219 17.6465L27.86 29.3081Z" fill="#4D4D4D"/>
<path d="M87.253 35.5805H79.8867L78.2346 40.149H75.8458L82.5544 22.6906H84.5801L91.3044 40.149H88.9261L87.253 35.5805ZM80.5918 33.6988H86.569L83.5751 25.5341L80.5918 33.6988Z" fill="#4D4D4D"/>
<path d="M96.1661 33.3172V40.1542H93.851V22.6906H100.333C102.255 22.6906 103.762 23.1785 104.853 24.1542C105.394 24.6416 105.821 25.241 106.104 25.9102C106.387 26.5795 106.518 27.3022 106.489 28.0274C106.537 28.7556 106.42 29.4852 106.146 30.1626C105.873 30.84 105.451 31.4482 104.911 31.9425C103.858 32.859 102.331 33.3172 100.328 33.3172H96.1661ZM96.1661 31.4355H100.328C101.353 31.5034 102.367 31.1925 103.174 30.5626C103.515 30.2411 103.78 29.8492 103.951 29.4148C104.122 28.9803 104.194 28.5138 104.164 28.0483C104.185 27.5862 104.108 27.1247 103.937 26.6942C103.767 26.2637 103.507 25.8737 103.174 25.5498C102.431 24.8851 101.459 24.5295 100.46 24.5567H96.1608L96.1661 31.4355Z" fill="#4D4D4D"/>
<path d="M112.609 22.6906L118.354 36.9343L124.1 22.6906H127.104V40.149H124.789V33.3538L125.005 26.0359L119.217 40.149H117.465L111.677 26.0464L111.909 33.3642V40.1594H109.594V22.6906H112.609Z" fill="#4D4D4D"/>
<path d="M141.289 35.5805H133.923L132.271 40.149H129.882L136.591 22.6906H138.617L145.351 40.149H142.973L141.289 35.5805ZM134.628 33.6988H140.616L137.622 25.5341L134.628 33.6988Z" fill="#4D4D4D"/>
<path d="M167.597 40.149H165.267V24.5567H156.606V40.1333H154.296V22.6906H167.608L167.597 40.149Z" fill="#4D4D4D"/>
<path d="M174.127 33.3172V40.1542H171.812V22.6906H178.294C180.216 22.6906 181.723 23.1785 182.814 24.1542C183.355 24.6416 183.782 25.241 184.065 25.9102C184.348 26.5795 184.479 27.3022 184.45 28.0274C184.498 28.7556 184.381 29.4852 184.107 30.1626C183.834 30.84 183.412 31.4482 182.872 31.9425C181.819 32.859 180.292 33.3172 178.289 33.3172H174.127ZM174.127 31.4355H178.289C179.312 31.5021 180.324 31.1912 181.13 30.5626C181.47 30.2411 181.735 29.8492 181.906 29.4148C182.077 28.9803 182.15 28.5138 182.119 28.0483C182.141 27.5862 182.064 27.1247 181.893 26.6942C181.723 26.2637 181.463 25.8737 181.13 25.5498C180.39 24.8876 179.422 24.5322 178.426 24.5567H174.127V31.4355Z" fill="#4D4D4D"/>
<path d="M200.924 31.9844C200.964 33.5208 200.674 35.048 200.072 36.4639C199.561 37.6592 198.704 38.6763 197.609 39.3859C196.788 39.9153 195.86 40.262 194.891 40.402C193.921 40.542 192.933 40.472 191.993 40.197C191.054 39.9219 190.185 39.4482 189.447 38.8084C188.709 38.1685 188.119 37.3777 187.718 36.4901C187.101 35.1229 186.791 33.6391 186.807 32.1412V30.8814C186.776 29.3533 187.076 27.8363 187.686 26.4332C188.193 25.2328 189.053 24.2121 190.153 23.5044C191.253 22.7967 192.543 22.4348 193.853 22.4659C195.167 22.4414 196.46 22.7934 197.578 23.4799C198.685 24.1842 199.553 25.202 200.072 26.4019C200.678 27.8171 200.973 29.344 200.94 30.8814L200.924 31.9844ZM198.62 30.8553C198.62 28.7854 198.201 27.1964 197.362 26.0882C196.958 25.5462 196.427 25.1111 195.814 24.8213C195.201 24.5314 194.526 24.3957 193.847 24.426C193.178 24.4011 192.513 24.5396 191.911 24.8294C191.308 25.1192 190.786 25.5515 190.391 26.0882C189.549 27.1964 189.116 28.7331 189.091 30.6985V31.9844C189.091 33.9915 189.515 35.5597 190.364 36.6887C190.775 37.216 191.3 37.6444 191.901 37.9421C192.501 38.2399 193.161 38.3992 193.832 38.4082C194.504 38.4172 195.168 38.2758 195.776 37.9944C196.385 37.7129 196.921 37.2988 197.346 36.7828C198.167 35.699 198.59 34.1466 198.614 32.1255L198.62 30.8553Z" fill="#4D4D4D"/>
<path d="M208.964 32.3084H206.828V40.149H204.507V22.6906H206.828V30.3901H208.638L214.804 22.6906H217.688L210.979 31.1584L218.188 40.1542H215.33L208.964 32.3084Z" fill="#4D4D4D"/>
<path d="M229.989 35.5805H222.623L220.971 40.149H218.582L225.291 22.6906H227.316L234.041 40.149H231.663L229.989 35.5805ZM223.328 33.6988H229.3L226.306 25.5341L223.328 33.6988Z" fill="#4D4D4D"/>
<path d="M246.995 24.5567H241.349V40.1333H239.044V24.5567H233.404V22.6749H246.995V24.5567Z" fill="#4D4D4D"/>
<path d="M85.2851 15.148H83.9907V11.8393H80.6338V15.148H79.3342V7.69946H80.6338V10.7939H83.9802V7.69946H85.2746L85.2851 15.148Z" fill="#4D4D4D"/>
<path d="M101.633 13.4074H98.7337L98.1286 15.148H96.7764L99.6018 7.71515H100.77L103.601 15.148H102.243L101.633 13.4074ZM99.0967 12.362H101.265L100.181 9.27804L99.0967 12.362Z" fill="#4D4D4D"/>
<path d="M116.302 7.69946V14.1026H118.586V7.69946H119.88V14.1026H122.148V7.69946H123.442V15.148H114.997V7.69946H116.302Z" fill="#4D4D4D"/>
<path d="M150.35 7.69946L152.507 13.3969L154.659 7.69946H156.343V15.148H155.048V12.6861L155.175 9.40871L152.965 15.1585H152.034L149.829 9.40871L149.955 12.6808V15.148H148.661V7.69946H150.35Z" fill="#4D4D4D"/>
<path d="M172.78 11.8184H169.707V14.1026H173.301V15.148H168.408V7.69946H173.238V8.74487H169.681V10.7991H172.754L172.78 11.8184Z" fill="#4D4D4D"/>
<path d="M190.396 8.74487H188.06V15.148H186.771V8.74487H184.456V7.69946H190.391L190.396 8.74487Z" fill="#4D4D4D"/>
<path d="M205.476 13.4074H202.576L201.971 15.148H200.598L203.424 7.71515H204.592L207.438 15.148H206.081L205.476 13.4074ZM202.939 12.362H205.107L204.023 9.27804L202.939 12.362Z" fill="#4D4D4D"/>
<path d="M224.801 7.69944V15.148H223.507V8.74485H221.213L221.081 11.6197C221.062 12.3279 220.95 13.0307 220.75 13.7105C220.628 14.142 220.37 14.5232 220.013 14.7978C219.628 15.0425 219.176 15.1614 218.719 15.1375H218.393V14.1026H218.598C218.86 14.0909 219.107 13.9784 219.287 13.789C219.477 13.5502 219.604 13.2681 219.655 12.9683C219.76 12.4357 219.82 11.8955 219.834 11.3531L219.976 7.69421L224.801 7.69944Z" fill="#4D4D4D"/>
<path d="M242.859 7.69944V15.148H241.565V8.74485H239.271L239.139 11.6197C239.12 12.3279 239.008 13.0307 238.808 13.7105C238.686 14.142 238.428 14.5232 238.071 14.7978C237.686 15.0425 237.233 15.1614 236.777 15.1375H236.451V14.1026H236.656C236.918 14.0909 237.165 13.9784 237.345 13.789C237.535 13.5502 237.661 13.2681 237.713 12.9683C237.818 12.4357 237.877 11.8955 237.892 11.3531L238.034 7.69421L242.859 7.69944Z" fill="#4D4D4D"/>
<path d="M64.123 48H52.9V5.1748H11.1809V48H0V-0.010437H64.123V48Z" fill="#8F8F8F"/>
</g>
<defs>
<clipPath id="clip0">
<rect width="247" height="48" fill="white"/>
</clipPath>
</defs>
</svg>
