<svg width="18" height="18" viewBox="0 0 18 18" fill="none" xmlns="http://www.w3.org/2000/svg">
<path d="M9.00021 1.68726C7.85943 1.68745 6.73452 1.95455 5.71541 2.46718C4.6963 2.97982 3.81127 3.72378 3.13106 4.63959C2.45086 5.5554 1.99436 6.61764 1.79805 7.74141C1.60174 8.86517 1.67108 10.0193 2.00051 11.1115C2.32994 12.2036 2.91034 13.2036 3.69529 14.0314C4.48024 14.8592 5.44798 15.4918 6.52113 15.8788C7.59429 16.2657 8.74308 16.3962 9.87568 16.2598C11.0083 16.1234 12.0933 15.724 13.0439 15.0933C13.1673 15.0104 13.2528 14.8819 13.2818 14.7361C13.3107 14.5903 13.2808 14.4389 13.1985 14.3151C13.1162 14.1913 12.9882 14.1051 12.8425 14.0754C12.6968 14.0456 12.5453 14.0748 12.4211 14.1565C11.2723 14.9187 9.90185 15.2756 8.5272 15.1703C7.15255 15.065 5.85242 14.5037 4.8331 13.5755C3.81378 12.6472 3.13365 11.4051 2.90062 10.0462C2.66759 8.68739 2.89502 7.28964 3.54681 6.07478C4.19861 4.85991 5.23744 3.8975 6.49847 3.34025C7.75951 2.783 9.17052 2.66282 10.5076 2.9988C11.8447 3.33477 13.0314 4.10764 13.8792 5.19479C14.7271 6.28193 15.1876 7.62108 15.1877 8.99976C15.1877 10.8594 14.423 11.2498 13.7815 11.2498C13.1399 11.2498 12.3752 10.8594 12.3752 8.99976V6.18726C12.3752 6.03807 12.3159 5.895 12.2105 5.78951C12.105 5.68402 11.9619 5.62476 11.8127 5.62476C11.6635 5.62476 11.5205 5.68402 11.415 5.78951C11.3095 5.895 11.2502 6.03807 11.2502 6.18726V6.48686C10.7454 6.03433 10.116 5.74431 9.44407 5.65458C8.7721 5.56486 8.08869 5.67959 7.48285 5.98382C6.87701 6.28806 6.37684 6.76769 6.04749 7.36025C5.71815 7.95281 5.57489 8.63083 5.63639 9.30597C5.69788 9.98111 5.96128 10.6221 6.39227 11.1454C6.82326 11.6687 7.40185 12.0501 8.05269 12.2398C8.70352 12.4296 9.39642 12.419 10.0411 12.2093C10.6858 11.9997 11.2524 11.6007 11.6672 11.0644C12.0893 11.9067 12.8168 12.3748 13.7815 12.3748C15.3664 12.3748 16.3127 11.1131 16.3127 8.99976C16.3105 7.06103 15.5394 5.20235 14.1685 3.83146C12.7976 2.46058 10.9389 1.68945 9.00021 1.68726ZM9.00021 11.2498C8.5552 11.2498 8.12019 11.1178 7.75018 10.8706C7.38017 10.6233 7.09178 10.2719 6.92148 9.86079C6.75119 9.44966 6.70663 8.99726 6.79345 8.5608C6.88026 8.12435 7.09455 7.72343 7.40922 7.40877C7.72389 7.0941 8.1248 6.87981 8.56126 6.79299C8.99772 6.70617 9.45012 6.75073 9.86125 6.92103C10.2724 7.09132 10.6238 7.37971 10.871 7.74972C11.1183 8.11973 11.2502 8.55475 11.2502 8.99976C11.2495 9.59628 11.0122 10.1682 10.5904 10.59C10.1686 11.0118 9.59674 11.2491 9.00021 11.2498Z" fill="#ADFF00"/>
</svg>
