<svg width="18" height="18" viewBox="0 0 18 18" fill="none" xmlns="http://www.w3.org/2000/svg">
<path d="M12.375 15.6095C6.8696 15.6095 2.39062 11.1306 2.39062 5.62517C2.39157 4.70157 2.7287 3.8099 3.33905 3.11671C3.94939 2.42353 4.79122 1.97624 5.70727 1.85839C5.91874 1.83293 6.13278 1.87662 6.31737 1.98292C6.50195 2.08922 6.64717 2.25241 6.7313 2.4481L8.14395 5.74421C8.20808 5.89338 8.23424 6.05613 8.22008 6.21789C8.20592 6.37965 8.15189 6.53538 8.0628 6.67114L6.89309 8.45841C6.87986 8.47764 6.87183 8.49996 6.86977 8.52321C6.86772 8.54645 6.8717 8.56984 6.88134 8.59109C7.42411 9.69834 8.32188 10.5921 9.43158 11.1298C9.45295 11.1393 9.47644 11.1432 9.49975 11.1409C9.52305 11.1387 9.54538 11.1304 9.56454 11.117L11.3248 9.9432C11.4609 9.85207 11.6177 9.79647 11.7809 9.78149C11.944 9.7665 12.1083 9.79261 12.2588 9.85742L15.552 11.2689C15.7477 11.353 15.9109 11.4982 16.0172 11.6827C16.1235 11.8673 16.1672 12.0814 16.1418 12.2928C16.024 13.2089 15.5767 14.0507 14.8835 14.6611C14.1903 15.2715 13.2986 15.6086 12.375 15.6095ZM5.82905 2.69454C5.82371 2.69453 5.81838 2.69486 5.81309 2.69553C5.10073 2.78726 4.44613 3.1352 3.97157 3.67433C3.49702 4.21347 3.23497 4.90693 3.23438 5.62517C3.23711 8.04857 4.20102 10.3719 5.91462 12.0855C7.62823 13.7992 9.9516 14.7631 12.375 14.7658C13.0932 14.7652 13.7867 14.5032 14.3258 14.0286C14.865 13.554 15.2129 12.8994 15.3046 12.1871C15.3078 12.1573 15.3012 12.1273 15.2858 12.1016C15.2705 12.0758 15.2473 12.0558 15.2196 12.0443L11.9264 10.633C11.9049 10.6238 11.8814 10.62 11.8581 10.6222C11.8348 10.6243 11.8124 10.6322 11.793 10.6452L10.0327 11.8191C9.89127 11.9137 9.72772 11.9699 9.55805 11.9823C9.38837 11.9946 9.21839 11.9627 9.06476 11.8897C7.78478 11.2694 6.74925 10.2385 6.12316 8.96136C6.04977 8.80863 6.01709 8.63953 6.0283 8.47046C6.03951 8.30139 6.09423 8.13808 6.18715 7.99639L7.3568 6.20904C7.36954 6.18963 7.37727 6.16737 7.37929 6.14424C7.38132 6.12111 7.37757 6.09784 7.3684 6.07651L5.95582 2.78054C5.94533 2.75543 5.92776 2.73392 5.90525 2.71863C5.88273 2.70335 5.85625 2.69495 5.82905 2.69447V2.69454Z" fill="#ADFF00"/>
</svg>
