<svg width="18" height="18" viewBox="0 0 18 18" fill="none" xmlns="http://www.w3.org/2000/svg">
<g clip-path="url(#clip0)">
<path d="M13.9339 9.74827C13.846 9.66025 13.7417 9.59041 13.6268 9.54277C13.5119 9.49512 13.3887 9.47059 13.2643 9.47059C13.1399 9.47059 13.0168 9.49512 12.9019 9.54277C12.787 9.59041 12.6826 9.66025 12.5947 9.74827L11.085 11.2579C10.3851 11.0495 9.07909 10.576 8.25133 9.74827C7.42356 8.92054 6.95001 7.61455 6.74165 6.91467L8.25133 5.40506C8.33936 5.31718 8.40919 5.21281 8.45684 5.09792C8.50449 4.98303 8.52902 4.85987 8.52902 4.73549C8.52902 4.61111 8.50449 4.48795 8.45684 4.37305C8.40919 4.25816 8.33936 4.15379 8.25133 4.06592L4.46293 0.277679C4.37505 0.189654 4.27068 0.11982 4.15578 0.0721724C4.04089 0.0245251 3.91772 0 3.79333 0C3.66895 0 3.54578 0.0245251 3.43089 0.0721724C3.31599 0.11982 3.21162 0.189654 3.12374 0.277679L0.555205 2.8461C0.195308 3.20599 -0.0073717 3.70035 0.000205089 4.20513C0.0219884 5.55375 0.379045 10.2379 4.07083 13.9295C7.76262 17.6212 12.447 17.9773 13.7966 18H13.8231C14.3232 18 14.7958 17.803 15.1538 17.445L17.7223 14.8766C17.8103 14.7887 17.8802 14.6844 17.9278 14.5695C17.9755 14.4546 18 14.3314 18 14.207C18 14.0826 17.9755 13.9595 17.9278 13.8446C17.8802 13.7297 17.8103 13.6253 17.7223 13.5375L13.9339 9.74827ZM13.8136 16.1049C12.6317 16.085 8.58755 15.7678 5.41003 12.5895C2.2221 9.40165 1.91334 5.3435 1.8944 4.18525L3.79333 2.28639L6.24253 4.73549L5.01793 5.96004C4.90661 6.07127 4.82476 6.20848 4.77979 6.35928C4.73481 6.51009 4.72812 6.66972 4.76032 6.82375C4.78305 6.93266 5.339 9.5153 6.91118 11.0874C8.48337 12.6595 11.0661 13.2155 11.175 13.2382C11.329 13.2713 11.4888 13.2651 11.6397 13.2203C11.7907 13.1754 11.9279 13.0933 12.0388 12.9815L13.2643 11.757L15.7135 14.2061L13.8136 16.1049Z" fill="#ADFF00"/>
</g>
<defs>
<clipPath id="clip0">
<rect width="18" height="18" fill="white"/>
</clipPath>
</defs>
</svg>
