<svg width="18" height="18" viewBox="0 0 18 18" fill="none" xmlns="http://www.w3.org/2000/svg">
<path d="M9 4.64062C8.47155 4.64062 7.95497 4.79733 7.51559 5.09092C7.0762 5.38451 6.73374 5.8018 6.53151 6.29002C6.32928 6.77824 6.27637 7.31546 6.37946 7.83376C6.48256 8.35205 6.73703 8.82813 7.1107 9.2018C7.48437 9.57547 7.96045 9.82994 8.47874 9.93303C8.99704 10.0361 9.53426 9.98322 10.0225 9.78099C10.5107 9.57876 10.928 9.2363 11.2216 8.79691C11.5152 8.35753 11.6719 7.84095 11.6719 7.3125C11.6711 6.60412 11.3893 5.92498 10.8884 5.42408C10.3875 4.92318 9.70838 4.64143 9 4.64062ZM9 9.14062C8.63843 9.14062 8.28498 9.03341 7.98435 8.83253C7.68371 8.63165 7.4494 8.34614 7.31103 8.01209C7.17267 7.67805 7.13646 7.31047 7.207 6.95585C7.27754 6.60123 7.45165 6.27549 7.70732 6.01982C7.96299 5.76415 8.28873 5.59004 8.64335 5.5195C8.99797 5.44896 9.36555 5.48517 9.69959 5.62353C10.0336 5.7619 10.3192 5.99621 10.52 6.29685C10.7209 6.59748 10.8281 6.95093 10.8281 7.3125C10.8276 7.79718 10.6348 8.26184 10.2921 8.60456C9.94934 8.94728 9.48468 9.14007 9 9.14062ZM9 1.26562C7.39682 1.26743 5.85983 1.90509 4.72621 3.03871C3.59259 4.17233 2.95493 5.70932 2.95312 7.3125C2.95312 9.48565 3.96141 11.7939 5.86912 13.9878C6.73011 14.9822 7.69904 15.8779 8.75805 16.6581C8.82895 16.7077 8.91341 16.7344 8.99996 16.7344C9.08652 16.7344 9.17098 16.7077 9.24188 16.6581C10.3009 15.8779 11.2698 14.9822 12.1308 13.9878C14.0386 11.7939 15.0469 9.48565 15.0469 7.3125C15.0451 5.70932 14.4074 4.17233 13.2738 3.03871C12.1402 1.90509 10.6032 1.26743 9 1.26562ZM9 15.786C7.9437 14.9714 3.79688 11.5048 3.79688 7.3125C3.79688 5.93255 4.34506 4.60911 5.32083 3.63334C6.29661 2.65756 7.62005 2.10938 9 2.10938C10.38 2.10938 11.7034 2.65756 12.6792 3.63334C13.6549 4.60911 14.2031 5.93255 14.2031 7.3125C14.2031 11.5048 10.0561 14.9714 9 15.786Z" fill="#ADFF00"/>
</svg>
