<svg width="55" height="55" viewBox="0 0 55 55" fill="none" xmlns="http://www.w3.org/2000/svg">
<path d="M50.4167 6.875H4.58337V20.625H6.87504V45.8333C6.87504 47.0489 7.35793 48.2147 8.21747 49.0742C9.07701 49.9338 10.2428 50.4167 11.4584 50.4167H43.5417C44.7573 50.4167 45.9231 49.9338 46.7826 49.0742C47.6422 48.2147 48.125 47.0489 48.125 45.8333V20.625H50.4167V6.875ZM9.16671 11.4583H45.8334V16.0417H9.16671V11.4583ZM43.5417 45.8333H11.4584V20.625H43.5417V45.8333Z" fill="white"/>
<path d="M17 32L26 42L40 27L37 24L26 36L20 29L17 32Z" fill="white"/>
</svg>
